<svg width="21" height="21" viewBox="0 0 21 21" fill="none" xmlns="http://www.w3.org/2000/svg">
<circle cx="10.5" cy="10.5" r="9" fill="#0C1250" stroke="white" stroke-width="3"/>
<path d="M7.60418 10.7646C7.44146 10.6019 7.17764 10.6019 7.01492 10.7646C6.8522 10.9273 6.8522 11.1912 7.01492 11.3539L9.09826 13.4372C9.26097 13.5999 9.52479 13.5999 9.68751 13.4372L14.2708 8.85387C14.4336 8.69115 14.4336 8.42734 14.2708 8.26462C14.1081 8.1019 13.8443 8.1019 13.6816 8.26462L9.39288 12.5533L7.60418 10.7646Z" fill="white"/>
<mask id="mask0" mask-type="alpha" maskUnits="userSpaceOnUse" x="6" y="8" width="9" height="6">
<path d="M7.60418 10.7646C7.44146 10.6019 7.17764 10.6019 7.01492 10.7646C6.8522 10.9273 6.8522 11.1912 7.01492 11.3539L9.09826 13.4372C9.26097 13.5999 9.52479 13.5999 9.68751 13.4372L14.2708 8.85387C14.4336 8.69115 14.4336 8.42734 14.2708 8.26462C14.1081 8.1019 13.8443 8.1019 13.6816 8.26462L9.39288 12.5533L7.60418 10.7646Z" fill="white"/>
</mask>
<g mask="url(#mask0)">
</g>
</svg>
