<svg width="79" height="81" viewBox="0 0 79 81" fill="none" xmlns="http://www.w3.org/2000/svg">
<path d="M19.3412 59.21C17.9879 59.21 16.8259 58.7433 15.8552 57.81C14.8939 56.8767 14.4132 55.6167 14.4132 54.03C14.4132 52.966 14.6559 52.0327 15.1412 51.23C15.6265 50.4273 16.2379 49.8347 16.9752 49.452C17.7125 49.06 18.5012 48.864 19.3412 48.864C20.4612 48.864 21.4039 49.1487 22.1692 49.718C22.9439 50.278 23.4572 51.0433 23.7092 52.014L22.4352 52.462C22.2485 51.7153 21.8892 51.1413 21.3572 50.74C20.8252 50.3293 20.1532 50.124 19.3412 50.124C18.3705 50.124 17.5399 50.4693 16.8492 51.16C16.1585 51.8413 15.8132 52.798 15.8132 54.03C15.8132 55.262 16.1585 56.2233 16.8492 56.914C17.5399 57.6047 18.3705 57.95 19.3412 57.95C20.1532 57.95 20.8299 57.7353 21.3712 57.306C21.9125 56.8673 22.2905 56.2887 22.5052 55.57L23.7232 56.018C23.4525 56.9793 22.9299 57.754 22.1552 58.342C21.3899 58.9207 20.4519 59.21 19.3412 59.21ZM26.5158 57.404C26.9264 57.824 27.4258 58.034 28.0138 58.034C28.6018 58.034 29.0964 57.824 29.4978 57.404C29.9084 56.9747 30.1138 56.382 30.1138 55.626C30.1138 54.8793 29.9084 54.296 29.4978 53.876C29.0964 53.4467 28.6018 53.232 28.0138 53.232C27.4258 53.232 26.9264 53.4467 26.5158 53.876C26.1144 54.296 25.9138 54.8793 25.9138 55.626C25.9138 56.382 26.1144 56.9747 26.5158 57.404ZM25.5358 53.078C26.1891 52.3967 27.0151 52.056 28.0138 52.056C29.0124 52.056 29.8338 52.3967 30.4778 53.078C31.1311 53.75 31.4578 54.5993 31.4578 55.626C31.4578 56.662 31.1358 57.5207 30.4918 58.202C29.8478 58.874 29.0218 59.21 28.0138 59.21C27.0058 59.21 26.1798 58.874 25.5358 58.202C24.8918 57.5207 24.5698 56.662 24.5698 55.626C24.5698 54.5993 24.8918 53.75 25.5358 53.078ZM34.4575 55.108V59H33.1415V52.266H34.4295V53.232C34.8775 52.4573 35.5682 52.07 36.5015 52.07C37.2762 52.07 37.8688 52.3173 38.2795 52.812C38.6995 53.3067 38.9095 53.946 38.9095 54.73V59H37.5935V54.954C37.5935 53.8247 37.0708 53.26 36.0255 53.26C35.5308 53.26 35.1435 53.4373 34.8635 53.792C34.5928 54.1373 34.4575 54.576 34.4575 55.108ZM42.7668 50.138V52.266H44.2228V53.456H42.7668V56.956C42.7668 57.2733 42.8368 57.5067 42.9768 57.656C43.1261 57.8053 43.3688 57.88 43.7048 57.88C43.9008 57.88 44.0735 57.8613 44.2228 57.824V58.944C43.9988 59.028 43.7001 59.07 43.3268 59.07C42.7481 59.07 42.2908 58.902 41.9548 58.566C41.6188 58.23 41.4508 57.7587 41.4508 57.152V53.456H40.1628V52.266H40.5268C40.8721 52.266 41.1288 52.1727 41.2968 51.986C41.4741 51.79 41.5628 51.538 41.5628 51.23V50.138H42.7668ZM46.765 54.94H50.447C50.4283 54.436 50.2603 54.0253 49.943 53.708C49.6257 53.3813 49.1777 53.218 48.599 53.218C48.0763 53.218 47.647 53.3907 47.311 53.736C46.975 54.072 46.793 54.4733 46.765 54.94ZM50.643 56.69L51.777 57.082C51.581 57.7073 51.217 58.2207 50.685 58.622C50.153 59.014 49.509 59.21 48.753 59.21C47.8103 59.21 47.0077 58.888 46.345 58.244C45.6917 57.5907 45.365 56.7133 45.365 55.612C45.365 54.5853 45.6823 53.736 46.317 53.064C46.9517 52.392 47.7077 52.056 48.585 52.056C49.6023 52.056 50.3957 52.378 50.965 53.022C51.5343 53.6567 51.819 54.5107 51.819 55.584C51.819 55.752 51.8097 55.892 51.791 56.004H46.723C46.7323 56.6013 46.9283 57.0913 47.311 57.474C47.703 57.8567 48.1837 58.048 48.753 58.048C49.7143 58.048 50.3443 57.5953 50.643 56.69ZM54.8149 55.108V59H53.4989V52.266H54.7869V53.232C55.2349 52.4573 55.9256 52.07 56.8589 52.07C57.6336 52.07 58.2262 52.3173 58.6369 52.812C59.0569 53.3067 59.2669 53.946 59.2669 54.73V59H57.9509V54.954C57.9509 53.8247 57.4282 53.26 56.3829 53.26C55.8882 53.26 55.5009 53.4373 55.2209 53.792C54.9502 54.1373 54.8149 54.576 54.8149 55.108ZM63.1242 50.138V52.266H64.5802V53.456H63.1242V56.956C63.1242 57.2733 63.1942 57.5067 63.3342 57.656C63.4836 57.8053 63.7262 57.88 64.0622 57.88C64.2582 57.88 64.4309 57.8613 64.5802 57.824V58.944C64.3562 59.028 64.0576 59.07 63.6842 59.07C63.1056 59.07 62.6482 58.902 62.3122 58.566C61.9762 58.23 61.8082 57.7587 61.8082 57.152V53.456H60.5202V52.266H60.8842C61.2296 52.266 61.4862 52.1727 61.6542 51.986C61.8316 51.79 61.9202 51.538 61.9202 51.23V50.138H63.1242ZM8.00695 69.328L6.77495 69.762C6.70961 69.3327 6.49961 68.9453 6.14495 68.6C5.79028 68.2453 5.30028 68.068 4.67495 68.068C4.12428 68.068 3.66695 68.2267 3.30295 68.544C2.93895 68.8613 2.75695 69.2533 2.75695 69.72C2.75695 70.084 2.86428 70.392 3.07895 70.644C3.30295 70.896 3.62028 71.0687 4.03095 71.162L5.51495 71.484C6.33628 71.6613 6.97095 71.9973 7.41895 72.492C7.86695 72.9773 8.09095 73.57 8.09095 74.27C8.09095 75.0727 7.77361 75.7633 7.13895 76.342C6.50428 76.9207 5.67828 77.21 4.66095 77.21C3.55028 77.21 2.67761 76.9207 2.04295 76.342C1.41761 75.754 1.05361 75.0587 0.950945 74.256L2.26695 73.836C2.32295 74.4333 2.55628 74.9373 2.96695 75.348C3.37761 75.7587 3.93761 75.964 4.64695 75.964C5.30028 75.964 5.80428 75.8147 6.15895 75.516C6.51361 75.2173 6.69095 74.8393 6.69095 74.382C6.69095 74.0087 6.56495 73.6867 6.31295 73.416C6.06095 73.136 5.69228 72.9447 5.20695 72.842L3.79295 72.534C3.05561 72.3753 2.46761 72.0627 2.02895 71.596C1.59028 71.1293 1.37095 70.5367 1.37095 69.818C1.37095 69.034 1.68828 68.348 2.32295 67.76C2.96695 67.1627 3.74161 66.864 4.64695 66.864C5.66428 66.864 6.44361 67.1113 6.98495 67.606C7.52628 68.1007 7.86695 68.6747 8.00695 69.328ZM10.7299 73.108V77H9.41395V70.266H10.7019V71.232C11.1499 70.4573 11.8406 70.07 12.7739 70.07C13.5486 70.07 14.1413 70.3173 14.5519 70.812C14.9719 71.3067 15.1819 71.946 15.1819 72.73V77H13.8659V72.954C13.8659 71.8247 13.3433 71.26 12.2979 71.26C11.8033 71.26 11.4159 71.4373 11.1359 71.792C10.8653 72.1373 10.7299 72.576 10.7299 73.108ZM18.1293 72.94H21.8113C21.7926 72.436 21.6246 72.0253 21.3073 71.708C20.9899 71.3813 20.5419 71.218 19.9633 71.218C19.4406 71.218 19.0113 71.3907 18.6753 71.736C18.3393 72.072 18.1573 72.4733 18.1293 72.94ZM22.0073 74.69L23.1413 75.082C22.9453 75.7073 22.5813 76.2207 22.0493 76.622C21.5173 77.014 20.8733 77.21 20.1173 77.21C19.1746 77.21 18.3719 76.888 17.7093 76.244C17.0559 75.5907 16.7293 74.7133 16.7293 73.612C16.7293 72.5853 17.0466 71.736 17.6813 71.064C18.3159 70.392 19.0719 70.056 19.9493 70.056C20.9666 70.056 21.7599 70.378 22.3293 71.022C22.8986 71.6567 23.1833 72.5107 23.1833 73.584C23.1833 73.752 23.1739 73.892 23.1553 74.004H18.0873C18.0966 74.6013 18.2926 75.0913 18.6753 75.474C19.0673 75.8567 19.5479 76.048 20.1173 76.048C21.0786 76.048 21.7086 75.5953 22.0073 74.69ZM24.4432 75.194C24.4432 74.6153 24.6298 74.1533 25.0032 73.808C25.3765 73.4533 25.8712 73.234 26.4872 73.15L28.3072 72.884C28.6525 72.8373 28.8252 72.6693 28.8252 72.38C28.8252 72.0253 28.7038 71.736 28.4612 71.512C28.2185 71.288 27.8545 71.176 27.3692 71.176C26.9212 71.176 26.5665 71.302 26.3052 71.554C26.0438 71.7967 25.8898 72.1233 25.8432 72.534L24.5832 72.24C24.6485 71.596 24.9425 71.0733 25.4652 70.672C25.9878 70.2613 26.6132 70.056 27.3412 70.056C28.2932 70.056 28.9978 70.2893 29.4552 70.756C29.9125 71.2133 30.1412 71.8013 30.1412 72.52V75.894C30.1412 76.2953 30.1692 76.664 30.2252 77H28.9372C28.8905 76.72 28.8672 76.4167 28.8672 76.09C28.6805 76.3887 28.4052 76.65 28.0412 76.874C27.6865 77.098 27.2385 77.21 26.6972 77.21C26.0345 77.21 25.4932 77.014 25.0732 76.622C24.6532 76.2207 24.4432 75.7447 24.4432 75.194ZM26.8792 76.104C27.4672 76.104 27.9385 75.9453 28.2932 75.628C28.6478 75.3107 28.8252 74.8067 28.8252 74.116V73.808L26.7672 74.116C26.4685 74.1627 26.2305 74.27 26.0532 74.438C25.8758 74.606 25.7872 74.8347 25.7872 75.124C25.7872 75.3853 25.8852 75.614 26.0812 75.81C26.2865 76.006 26.5525 76.104 26.8792 76.104ZM38.2253 70.266L35.3553 73.108L38.2813 77H36.6293L34.4313 74.032L33.4933 74.97V77H32.1913V66.864H33.4933V73.248L36.4053 70.266H38.2253ZM44.5588 71.708H46.5468C47.1348 71.708 47.6014 71.5587 47.9468 71.26C48.2921 70.952 48.4648 70.5413 48.4648 70.028C48.4648 69.5053 48.2921 69.09 47.9468 68.782C47.6014 68.4647 47.1348 68.306 46.5468 68.306H44.5588V71.708ZM46.7988 72.94H44.5588V77H43.1868V67.074H46.7988C47.7041 67.074 48.4414 67.354 49.0108 67.914C49.5801 68.474 49.8648 69.174 49.8648 70.014C49.8648 70.8633 49.5801 71.5633 49.0108 72.114C48.4414 72.6647 47.7041 72.94 46.7988 72.94ZM51.6937 72.94H55.3757C55.3571 72.436 55.1891 72.0253 54.8717 71.708C54.5544 71.3813 54.1064 71.218 53.5277 71.218C53.0051 71.218 52.5757 71.3907 52.2397 71.736C51.9037 72.072 51.7217 72.4733 51.6937 72.94ZM55.5717 74.69L56.7057 75.082C56.5097 75.7073 56.1457 76.2207 55.6137 76.622C55.0817 77.014 54.4377 77.21 53.6817 77.21C52.7391 77.21 51.9364 76.888 51.2737 76.244C50.6204 75.5907 50.2937 74.7133 50.2937 73.612C50.2937 72.5853 50.6111 71.736 51.2457 71.064C51.8804 70.392 52.6364 70.056 53.5137 70.056C54.5311 70.056 55.3244 70.378 55.8937 71.022C56.4631 71.6567 56.7477 72.5107 56.7477 73.584C56.7477 73.752 56.7384 73.892 56.7197 74.004H51.6517C51.6611 74.6013 51.8571 75.0913 52.2397 75.474C52.6317 75.8567 53.1124 76.048 53.6817 76.048C54.6431 76.048 55.2731 75.5953 55.5717 74.69ZM59.2816 72.94H62.9636C62.945 72.436 62.777 72.0253 62.4596 71.708C62.1423 71.3813 61.6943 71.218 61.1156 71.218C60.593 71.218 60.1636 71.3907 59.8276 71.736C59.4916 72.072 59.3096 72.4733 59.2816 72.94ZM63.1596 74.69L64.2936 75.082C64.0976 75.7073 63.7336 76.2207 63.2016 76.622C62.6696 77.014 62.0256 77.21 61.2696 77.21C60.327 77.21 59.5243 76.888 58.8616 76.244C58.2083 75.5907 57.8816 74.7133 57.8816 73.612C57.8816 72.5853 58.199 71.736 58.8336 71.064C59.4683 70.392 60.2243 70.056 61.1016 70.056C62.119 70.056 62.9123 70.378 63.4816 71.022C64.051 71.6567 64.3356 72.5107 64.3356 73.584C64.3356 73.752 64.3263 73.892 64.3076 74.004H59.2396C59.249 74.6013 59.445 75.0913 59.8276 75.474C60.2196 75.8567 60.7003 76.048 61.2696 76.048C62.231 76.048 62.861 75.5953 63.1596 74.69ZM72.0495 70.266L69.1795 73.108L72.1055 77H70.4535L68.2555 74.032L67.3175 74.97V77H66.0155V66.864H67.3175V73.248L70.2295 70.266H72.0495ZM72.741 75.25L73.931 74.83C73.9776 75.194 74.1363 75.4973 74.407 75.74C74.6776 75.9733 75.0416 76.09 75.499 76.09C75.8536 76.09 76.1336 76.006 76.339 75.838C76.5443 75.6607 76.647 75.446 76.647 75.194C76.647 74.746 76.3576 74.4567 75.779 74.326L74.631 74.074C74.1083 73.962 73.6976 73.738 73.399 73.402C73.1003 73.066 72.951 72.66 72.951 72.184C72.951 71.6053 73.1843 71.106 73.651 70.686C74.127 70.266 74.6916 70.056 75.345 70.056C75.7743 70.056 76.157 70.1213 76.493 70.252C76.829 70.3733 77.0903 70.5367 77.277 70.742C77.4636 70.9473 77.6036 71.1387 77.697 71.316C77.7903 71.4933 77.8603 71.6753 77.907 71.862L76.745 72.296C76.7263 72.184 76.6936 72.0767 76.647 71.974C76.6003 71.862 76.5256 71.7407 76.423 71.61C76.3296 71.4793 76.1896 71.3767 76.003 71.302C75.8163 71.218 75.597 71.176 75.345 71.176C75.0183 71.176 74.7476 71.2647 74.533 71.442C74.3276 71.6193 74.225 71.8293 74.225 72.072C74.225 72.5013 74.4816 72.772 74.995 72.884L76.087 73.122C76.6843 73.2527 77.1416 73.4953 77.459 73.85C77.7856 74.1953 77.949 74.62 77.949 75.124C77.949 75.656 77.7296 76.1367 77.291 76.566C76.8616 76.9953 76.2596 77.21 75.485 77.21C74.6543 77.21 74.0056 77.0047 73.539 76.594C73.0723 76.174 72.8063 75.726 72.741 75.25Z" fill="#0C1250" fill-opacity="0.5"/>
<rect x="19" width="40" height="40" rx="20" fill="white"/>
<path d="M48.9999 21.241C48.9999 26.6098 44.5438 30.9997 39 30.9997C33.4561 30.9997 29 26.6098 29 21.241C29 15.8723 33.4561 11.4824 39 11.4824C44.5438 11.4824 48.9999 15.8723 48.9999 21.241Z" stroke="#8562EB" stroke-width="2"/>
<rect x="29.5386" y="16.9316" width="18.923" height="6.13793" rx="3.06897" stroke="#8562EB" stroke-width="2"/>
<ellipse cx="34.3461" cy="20.0002" rx="1.26923" ry="1.24138" fill="#8562EB"/>
<ellipse cx="43.654" cy="20.0002" rx="1.26923" ry="1.24138" fill="#8562EB"/>
<path d="M44.9232 8L42.3848 11.3103L47.0386 14.6207L50.0001 11.3103L47.8847 8L46.1924 9.65517L44.9232 8Z" fill="#8562EB" stroke="#8562EB"/>
</svg>
