<svg width="56" height="65" viewBox="0 0 56 65" fill="none" xmlns="http://www.w3.org/2000/svg">
<path d="M3.05583 60H1.68383V50.074H7.71783V51.348H3.05583V54.54H7.28383V55.828H3.05583V60ZM8.34258 58.194C8.34258 57.6153 8.52924 57.1533 8.90258 56.808C9.27591 56.4533 9.77058 56.234 10.3866 56.15L12.2066 55.884C12.5519 55.8373 12.7246 55.6693 12.7246 55.38C12.7246 55.0253 12.6032 54.736 12.3606 54.512C12.1179 54.288 11.7539 54.176 11.2686 54.176C10.8206 54.176 10.4659 54.302 10.2046 54.554C9.94324 54.7967 9.78924 55.1233 9.74258 55.534L8.48258 55.24C8.54791 54.596 8.84191 54.0733 9.36458 53.672C9.88724 53.2613 10.5126 53.056 11.2406 53.056C12.1926 53.056 12.8972 53.2893 13.3546 53.756C13.8119 54.2133 14.0406 54.8013 14.0406 55.52V58.894C14.0406 59.2953 14.0686 59.664 14.1246 60H12.8366C12.7899 59.72 12.7666 59.4167 12.7666 59.09C12.5799 59.3887 12.3046 59.65 11.9406 59.874C11.5859 60.098 11.1379 60.21 10.5966 60.21C9.93391 60.21 9.39258 60.014 8.97258 59.622C8.55258 59.2207 8.34258 58.7447 8.34258 58.194ZM10.7786 59.104C11.3666 59.104 11.8379 58.9453 12.1926 58.628C12.5472 58.3107 12.7246 57.8067 12.7246 57.116V56.808L10.6666 57.116C10.3679 57.1627 10.1299 57.27 9.95258 57.438C9.77524 57.606 9.68658 57.8347 9.68658 58.124C9.68658 58.3853 9.78458 58.614 9.98058 58.81C10.1859 59.006 10.4519 59.104 10.7786 59.104ZM17.4067 56.108V60H16.0907V53.266H17.3787V54.232C17.8267 53.4573 18.5174 53.07 19.4507 53.07C20.2254 53.07 20.818 53.3173 21.2287 53.812C21.6487 54.3067 21.8587 54.946 21.8587 55.73V60H20.5427V55.954C20.5427 54.8247 20.02 54.26 18.9747 54.26C18.48 54.26 18.0927 54.4373 17.8127 54.792C17.542 55.1373 17.4067 55.576 17.4067 56.108ZM28.964 54.708H30.952C31.54 54.708 32.0067 54.5587 32.352 54.26C32.6974 53.952 32.87 53.5413 32.87 53.028C32.87 52.5053 32.6974 52.09 32.352 51.782C32.0067 51.4647 31.54 51.306 30.952 51.306H28.964V54.708ZM31.204 55.94H28.964V60H27.592V50.074H31.204C32.1094 50.074 32.8467 50.354 33.416 50.914C33.9854 51.474 34.27 52.174 34.27 53.014C34.27 53.8633 33.9854 54.5633 33.416 55.114C32.8467 55.6647 32.1094 55.94 31.204 55.94ZM36.631 58.404C37.0417 58.824 37.541 59.034 38.129 59.034C38.717 59.034 39.2117 58.824 39.613 58.404C40.0237 57.9747 40.229 57.382 40.229 56.626C40.229 55.8793 40.0237 55.296 39.613 54.876C39.2117 54.4467 38.717 54.232 38.129 54.232C37.541 54.232 37.0417 54.4467 36.631 54.876C36.2297 55.296 36.029 55.8793 36.029 56.626C36.029 57.382 36.2297 57.9747 36.631 58.404ZM35.651 54.078C36.3043 53.3967 37.1303 53.056 38.129 53.056C39.1277 53.056 39.949 53.3967 40.593 54.078C41.2463 54.75 41.573 55.5993 41.573 56.626C41.573 57.662 41.251 58.5207 40.607 59.202C39.963 59.874 39.137 60.21 38.129 60.21C37.121 60.21 36.295 59.874 35.651 59.202C35.007 58.5207 34.685 57.662 34.685 56.626C34.685 55.5993 35.007 54.75 35.651 54.078ZM44.5727 60H43.2567V49.864H44.5727V60ZM48.1274 60H46.8114V49.864H48.1274V60ZM49.7361 58.25L50.9261 57.83C50.9728 58.194 51.1314 58.4973 51.4021 58.74C51.6728 58.9733 52.0368 59.09 52.4941 59.09C52.8488 59.09 53.1288 59.006 53.3341 58.838C53.5394 58.6607 53.6421 58.446 53.6421 58.194C53.6421 57.746 53.3528 57.4567 52.7741 57.326L51.6261 57.074C51.1034 56.962 50.6928 56.738 50.3941 56.402C50.0954 56.066 49.9461 55.66 49.9461 55.184C49.9461 54.6053 50.1794 54.106 50.6461 53.686C51.1221 53.266 51.6868 53.056 52.3401 53.056C52.7694 53.056 53.1521 53.1213 53.4881 53.252C53.8241 53.3733 54.0854 53.5367 54.2721 53.742C54.4588 53.9473 54.5988 54.1387 54.6921 54.316C54.7854 54.4933 54.8554 54.6753 54.9021 54.862L53.7401 55.296C53.7214 55.184 53.6888 55.0767 53.6421 54.974C53.5954 54.862 53.5208 54.7407 53.4181 54.61C53.3248 54.4793 53.1848 54.3767 52.9981 54.302C52.8114 54.218 52.5921 54.176 52.3401 54.176C52.0134 54.176 51.7428 54.2647 51.5281 54.442C51.3228 54.6193 51.2201 54.8293 51.2201 55.072C51.2201 55.5013 51.4768 55.772 51.9901 55.884L53.0821 56.122C53.6794 56.2527 54.1368 56.4953 54.4541 56.85C54.7808 57.1953 54.9441 57.62 54.9441 58.124C54.9441 58.656 54.7248 59.1367 54.2861 59.566C53.8568 59.9953 53.2548 60.21 52.4801 60.21C51.6494 60.21 51.0008 60.0047 50.5341 59.594C50.0674 59.174 49.8014 58.726 49.7361 58.25Z" fill="#0C1250" fill-opacity="0.5"/>
<rect x="8" width="40" height="40" rx="20" fill="white"/>
<rect x="20" y="24.8008" width="16" height="3.2" rx="1" stroke="#795BF1" stroke-width="2"/>
<rect x="20" y="18.4004" width="12" height="3.2" rx="1" stroke="#795BF1" stroke-width="2"/>
<rect x="20" y="12" width="8" height="3.2" rx="1" stroke="#795BF1" stroke-width="2"/>
</svg>
