<svg width="50" height="50" viewBox="0 0 50 50" fill="none" xmlns="http://www.w3.org/2000/svg">
<g opacity="0.9">
<rect width="50" height="50" rx="25" fill="white"/>
<path opacity="0.15" fill-rule="evenodd" clip-rule="evenodd" d="M22.1136 17.3111L32.1116 23.4692C33.03 24.0348 33.2764 25.1788 32.6618 26.0242C32.5162 26.2245 32.3293 26.3966 32.1116 26.5306L22.1136 32.6887C21.1952 33.2544 19.9525 33.0277 19.3379 32.1823C19.1176 31.8792 19 31.5227 19 31.158L19 18.8418C19 17.8246 19.8958 17 21.0009 17C21.3971 17 21.7844 17.1083 22.1136 17.3111Z" fill="#7850EA"/>
<path d="M32.6361 22.6177L22.6381 16.4596C22.1471 16.1572 21.5775 16 21.0009 16C19.4232 16 18 17.1959 18 18.8418V31.158C18 31.7401 18.1882 32.3013 18.5291 32.7702C19.4664 34.0597 21.2974 34.3659 22.6381 33.5402L32.6361 27.3821C32.9612 27.1819 33.2459 26.9214 33.4707 26.6122C34.4472 25.2689 34.0217 23.4712 32.6361 22.6177Z" stroke="#7850EA" stroke-width="2"/>
</g>
</svg>
