<svg width="74" height="99" viewBox="0 0 74 99" fill="none" xmlns="http://www.w3.org/2000/svg">
<path d="M10.5929 51.328L9.36088 51.762C9.29555 51.3327 9.08555 50.9453 8.73088 50.6C8.37622 50.2453 7.88622 50.068 7.26088 50.068C6.71022 50.068 6.25288 50.2267 5.88888 50.544C5.52488 50.8613 5.34288 51.2533 5.34288 51.72C5.34288 52.084 5.45022 52.392 5.66488 52.644C5.88888 52.896 6.20622 53.0687 6.61688 53.162L8.10088 53.484C8.92222 53.6613 9.55688 53.9973 10.0049 54.492C10.4529 54.9773 10.6769 55.57 10.6769 56.27C10.6769 57.0727 10.3595 57.7633 9.72488 58.342C9.09022 58.9207 8.26422 59.21 7.24688 59.21C6.13622 59.21 5.26355 58.9207 4.62888 58.342C4.00355 57.754 3.63955 57.0587 3.53688 56.256L4.85288 55.836C4.90888 56.4333 5.14222 56.9373 5.55288 57.348C5.96355 57.7587 6.52355 57.964 7.23288 57.964C7.88622 57.964 8.39022 57.8147 8.74488 57.516C9.09955 57.2173 9.27688 56.8393 9.27688 56.382C9.27688 56.0087 9.15088 55.6867 8.89888 55.416C8.64688 55.136 8.27822 54.9447 7.79288 54.842L6.37888 54.534C5.64155 54.3753 5.05355 54.0627 4.61488 53.596C4.17622 53.1293 3.95688 52.5367 3.95688 51.818C3.95688 51.034 4.27422 50.348 4.90888 49.76C5.55288 49.1627 6.32755 48.864 7.23288 48.864C8.25022 48.864 9.02955 49.1113 9.57088 49.606C10.1122 50.1007 10.4529 50.6747 10.5929 51.328ZM13.141 54.94H16.823C16.8043 54.436 16.6363 54.0253 16.319 53.708C16.0017 53.3813 15.5537 53.218 14.975 53.218C14.4523 53.218 14.023 53.3907 13.687 53.736C13.351 54.072 13.169 54.4733 13.141 54.94ZM17.019 56.69L18.153 57.082C17.957 57.7073 17.593 58.2207 17.061 58.622C16.529 59.014 15.885 59.21 15.129 59.21C14.1863 59.21 13.3837 58.888 12.721 58.244C12.0677 57.5907 11.741 56.7133 11.741 55.612C11.741 54.5853 12.0583 53.736 12.693 53.064C13.3277 52.392 14.0837 52.056 14.961 52.056C15.9783 52.056 16.7717 52.378 17.341 53.022C17.9103 53.6567 18.195 54.5107 18.195 55.584C18.195 55.752 18.1857 55.892 18.167 56.004H13.099C13.1083 56.6013 13.3043 57.0913 13.687 57.474C14.079 57.8567 14.5597 58.048 15.129 58.048C16.0903 58.048 16.7203 57.5953 17.019 56.69ZM21.1909 55.108V59H19.8749V52.266H21.1629V53.232C21.6109 52.4573 22.3015 52.07 23.2349 52.07C24.0095 52.07 24.6022 52.3173 25.0129 52.812C25.4329 53.3067 25.6429 53.946 25.6429 54.73V59H24.3269V54.954C24.3269 53.8247 23.8042 53.26 22.7589 53.26C22.2642 53.26 21.8769 53.4373 21.5969 53.792C21.3262 54.1373 21.1909 54.576 21.1909 55.108ZM28.5202 55.612C28.5202 56.3213 28.6929 56.9 29.0382 57.348C29.3929 57.796 29.8782 58.02 30.4942 58.02C31.0822 58.02 31.5535 57.7913 31.9082 57.334C32.2629 56.8767 32.4402 56.2933 32.4402 55.584C32.4402 54.884 32.2675 54.3193 31.9222 53.89C31.5769 53.4607 31.1055 53.246 30.5082 53.246C29.9109 53.246 29.4302 53.4653 29.0662 53.904C28.7022 54.3427 28.5202 54.912 28.5202 55.612ZM32.4542 58.09V57.978C32.2769 58.3233 32.0062 58.6127 31.6422 58.846C31.2875 59.07 30.8629 59.182 30.3682 59.182C29.4069 59.182 28.6322 58.846 28.0442 58.174C27.4655 57.4927 27.1762 56.6387 27.1762 55.612C27.1762 54.632 27.4749 53.8013 28.0722 53.12C28.6695 52.4293 29.4349 52.084 30.3682 52.084C30.9189 52.084 31.3669 52.196 31.7122 52.42C32.0575 52.6347 32.2955 52.9007 32.4262 53.218V48.864H33.7282V57.754C33.7282 58.2113 33.7515 58.6267 33.7982 59H32.5242C32.4775 58.7387 32.4542 58.4353 32.4542 58.09ZM43.9047 58.188C43.7273 58.524 43.4567 58.7807 43.0927 58.958C42.7287 59.126 42.3367 59.21 41.9167 59.21C41.1513 59.21 40.54 58.958 40.0827 58.454C39.6253 57.9407 39.3967 57.292 39.3967 56.508V52.266H40.7127V56.312C40.7127 56.816 40.834 57.2313 41.0767 57.558C41.3287 57.8847 41.716 58.048 42.2387 58.048C42.7613 58.048 43.158 57.894 43.4287 57.586C43.6993 57.2687 43.8347 56.8487 43.8347 56.326V52.266H45.1507V57.754C45.1507 58.1927 45.174 58.608 45.2207 59H43.9607C43.9233 58.7947 43.9047 58.524 43.9047 58.188ZM48.6984 61.66H47.3964V52.266H48.6704V53.316C48.8664 52.9613 49.1604 52.672 49.5524 52.448C49.9444 52.224 50.4017 52.112 50.9244 52.112C51.895 52.112 52.651 52.4433 53.1924 53.106C53.743 53.7687 54.0184 54.6087 54.0184 55.626C54.0184 56.6527 53.7337 57.502 53.1644 58.174C52.6044 58.846 51.8437 59.182 50.8824 59.182C50.3877 59.182 49.949 59.0793 49.5664 58.874C49.1837 58.6687 48.8944 58.4073 48.6984 58.09V61.66ZM52.6744 55.626C52.6744 54.9447 52.4924 54.3847 52.1284 53.946C51.7737 53.498 51.293 53.274 50.6864 53.274C50.089 53.274 49.6037 53.498 49.2304 53.946C48.8664 54.3847 48.6844 54.9447 48.6844 55.626C48.6844 56.326 48.8664 56.9 49.2304 57.348C49.6037 57.7867 50.089 58.006 50.6864 58.006C51.2837 58.006 51.7644 57.7867 52.1284 57.348C52.4924 56.9 52.6744 56.326 52.6744 55.626ZM60.9592 50.138V52.266H62.4152V53.456H60.9592V56.956C60.9592 57.2733 61.0292 57.5067 61.1692 57.656C61.3185 57.8053 61.5612 57.88 61.8972 57.88C62.0932 57.88 62.2659 57.8613 62.4152 57.824V58.944C62.1912 59.028 61.8925 59.07 61.5192 59.07C60.9405 59.07 60.4832 58.902 60.1472 58.566C59.8112 58.23 59.6432 57.7587 59.6432 57.152V53.456H58.3552V52.266H58.7192C59.0645 52.266 59.3212 52.1727 59.4892 51.986C59.6665 51.79 59.7552 51.538 59.7552 51.23V50.138H60.9592ZM65.4894 57.404C65.9001 57.824 66.3994 58.034 66.9874 58.034C67.5754 58.034 68.0701 57.824 68.4714 57.404C68.8821 56.9747 69.0874 56.382 69.0874 55.626C69.0874 54.8793 68.8821 54.296 68.4714 53.876C68.0701 53.4467 67.5754 53.232 66.9874 53.232C66.3994 53.232 65.9001 53.4467 65.4894 53.876C65.0881 54.296 64.8874 54.8793 64.8874 55.626C64.8874 56.382 65.0881 56.9747 65.4894 57.404ZM64.5094 53.078C65.1627 52.3967 65.9887 52.056 66.9874 52.056C67.9861 52.056 68.8074 52.3967 69.4514 53.078C70.1047 53.75 70.4314 54.5993 70.4314 55.626C70.4314 56.662 70.1094 57.5207 69.4654 58.202C68.8214 58.874 67.9954 59.21 66.9874 59.21C65.9794 59.21 65.1534 58.874 64.5094 58.202C63.8654 57.5207 63.5434 56.662 63.5434 55.626C63.5434 54.5993 63.8654 53.75 64.5094 53.078ZM0.55543 74.536L1.87143 74.144C1.90876 74.704 2.1141 75.1567 2.48743 75.502C2.8701 75.8473 3.3461 76.02 3.91543 76.02C4.4661 76.02 4.9281 75.852 5.30143 75.516C5.67476 75.18 5.86143 74.7367 5.86143 74.186C5.86143 73.5887 5.67476 73.1267 5.30143 72.8C4.9281 72.4733 4.46143 72.31 3.90143 72.31C3.2201 72.31 2.66943 72.5293 2.24943 72.968C2.11876 72.9213 1.9041 72.8373 1.60543 72.716C1.30676 72.5947 1.07343 72.5013 0.90543 72.436L2.08143 67.928H6.86943V69.188H2.99143L2.31943 71.792C2.72076 71.344 3.33676 71.12 4.16743 71.12C5.07276 71.12 5.8101 71.3907 6.37943 71.932C6.9581 72.4733 7.24743 73.206 7.24743 74.13C7.24743 75.0073 6.93943 75.7447 6.32343 76.342C5.70743 76.93 4.90476 77.224 3.91543 77.224C2.9821 77.224 2.20276 76.9627 1.57743 76.44C0.96143 75.9173 0.620763 75.2827 0.55543 74.536ZM23.2194 77H21.8614V69.272L18.4734 77H17.2134L13.8534 69.272V77H12.4954V67.074H14.3574L17.8574 75.152L21.3854 67.074H23.2194V77ZM26.4574 72.94H30.1394C30.1207 72.436 29.9527 72.0253 29.6354 71.708C29.3181 71.3813 28.8701 71.218 28.2914 71.218C27.7687 71.218 27.3394 71.3907 27.0034 71.736C26.6674 72.072 26.4854 72.4733 26.4574 72.94ZM30.3354 74.69L31.4694 75.082C31.2734 75.7073 30.9094 76.2207 30.3774 76.622C29.8454 77.014 29.2014 77.21 28.4454 77.21C27.5027 77.21 26.7001 76.888 26.0374 76.244C25.3841 75.5907 25.0574 74.7133 25.0574 73.612C25.0574 72.5853 25.3747 71.736 26.0094 71.064C26.6441 70.392 27.4001 70.056 28.2774 70.056C29.2947 70.056 30.0881 70.378 30.6574 71.022C31.2267 71.6567 31.5114 72.5107 31.5114 73.584C31.5114 73.752 31.5021 73.892 31.4834 74.004H26.4154C26.4247 74.6013 26.6207 75.0913 27.0034 75.474C27.3954 75.8567 27.8761 76.048 28.4454 76.048C29.4067 76.048 30.0367 75.5953 30.3354 74.69ZM32.5613 75.25L33.7513 74.83C33.798 75.194 33.9566 75.4973 34.2273 75.74C34.498 75.9733 34.862 76.09 35.3193 76.09C35.674 76.09 35.954 76.006 36.1593 75.838C36.3646 75.6607 36.4673 75.446 36.4673 75.194C36.4673 74.746 36.178 74.4567 35.5993 74.326L34.4513 74.074C33.9286 73.962 33.518 73.738 33.2193 73.402C32.9206 73.066 32.7713 72.66 32.7713 72.184C32.7713 71.6053 33.0046 71.106 33.4713 70.686C33.9473 70.266 34.512 70.056 35.1653 70.056C35.5946 70.056 35.9773 70.1213 36.3133 70.252C36.6493 70.3733 36.9106 70.5367 37.0973 70.742C37.284 70.9473 37.424 71.1387 37.5173 71.316C37.6106 71.4933 37.6806 71.6753 37.7273 71.862L36.5653 72.296C36.5466 72.184 36.514 72.0767 36.4673 71.974C36.4206 71.862 36.346 71.7407 36.2433 71.61C36.15 71.4793 36.01 71.3767 35.8233 71.302C35.6366 71.218 35.4173 71.176 35.1653 71.176C34.8386 71.176 34.568 71.2647 34.3533 71.442C34.148 71.6193 34.0453 71.8293 34.0453 72.072C34.0453 72.5013 34.302 72.772 34.8153 72.884L35.9073 73.122C36.5046 73.2527 36.962 73.4953 37.2793 73.85C37.606 74.1953 37.7693 74.62 37.7693 75.124C37.7693 75.656 37.55 76.1367 37.1113 76.566C36.682 76.9953 36.08 77.21 35.3053 77.21C34.4746 77.21 33.826 77.0047 33.3593 76.594C32.8926 76.174 32.6266 75.726 32.5613 75.25ZM38.8914 75.25L40.0814 74.83C40.128 75.194 40.2867 75.4973 40.5574 75.74C40.828 75.9733 41.192 76.09 41.6494 76.09C42.004 76.09 42.284 76.006 42.4894 75.838C42.6947 75.6607 42.7974 75.446 42.7974 75.194C42.7974 74.746 42.508 74.4567 41.9294 74.326L40.7814 74.074C40.2587 73.962 39.848 73.738 39.5494 73.402C39.2507 73.066 39.1014 72.66 39.1014 72.184C39.1014 71.6053 39.3347 71.106 39.8014 70.686C40.2774 70.266 40.842 70.056 41.4954 70.056C41.9247 70.056 42.3074 70.1213 42.6434 70.252C42.9794 70.3733 43.2407 70.5367 43.4274 70.742C43.614 70.9473 43.754 71.1387 43.8474 71.316C43.9407 71.4933 44.0107 71.6753 44.0574 71.862L42.8954 72.296C42.8767 72.184 42.844 72.0767 42.7974 71.974C42.7507 71.862 42.676 71.7407 42.5734 71.61C42.48 71.4793 42.34 71.3767 42.1534 71.302C41.9667 71.218 41.7474 71.176 41.4954 71.176C41.1687 71.176 40.898 71.2647 40.6834 71.442C40.478 71.6193 40.3754 71.8293 40.3754 72.072C40.3754 72.5013 40.632 72.772 41.1454 72.884L42.2374 73.122C42.8347 73.2527 43.292 73.4953 43.6094 73.85C43.936 74.1953 44.0994 74.62 44.0994 75.124C44.0994 75.656 43.88 76.1367 43.4414 76.566C43.012 76.9953 42.41 77.21 41.6354 77.21C40.8047 77.21 40.156 77.0047 39.6894 76.594C39.2227 76.174 38.9567 75.726 38.8914 75.25ZM45.2947 75.194C45.2947 74.6153 45.4814 74.1533 45.8547 73.808C46.2281 73.4533 46.7227 73.234 47.3387 73.15L49.1587 72.884C49.5041 72.8373 49.6767 72.6693 49.6767 72.38C49.6767 72.0253 49.5554 71.736 49.3127 71.512C49.0701 71.288 48.7061 71.176 48.2207 71.176C47.7727 71.176 47.4181 71.302 47.1567 71.554C46.8954 71.7967 46.7414 72.1233 46.6947 72.534L45.4347 72.24C45.5001 71.596 45.7941 71.0733 46.3167 70.672C46.8394 70.2613 47.4647 70.056 48.1927 70.056C49.1447 70.056 49.8494 70.2893 50.3067 70.756C50.7641 71.2133 50.9927 71.8013 50.9927 72.52V75.894C50.9927 76.2953 51.0207 76.664 51.0767 77H49.7887C49.7421 76.72 49.7187 76.4167 49.7187 76.09C49.5321 76.3887 49.2567 76.65 48.8927 76.874C48.5381 77.098 48.0901 77.21 47.5487 77.21C46.8861 77.21 46.3447 77.014 45.9247 76.622C45.5047 76.2207 45.2947 75.7447 45.2947 75.194ZM47.7307 76.104C48.3187 76.104 48.7901 75.9453 49.1447 75.628C49.4994 75.3107 49.6767 74.8067 49.6767 74.116V73.808L47.6187 74.116C47.3201 74.1627 47.0821 74.27 46.9047 74.438C46.7274 74.606 46.6387 74.8347 46.6387 75.124C46.6387 75.3853 46.7367 75.614 46.9327 75.81C47.1381 76.006 47.4041 76.104 47.7307 76.104ZM52.5529 77.364L53.8269 77.07C53.8735 77.546 54.0649 77.938 54.4009 78.246C54.7369 78.5633 55.1569 78.722 55.6609 78.722C57.0329 78.722 57.7189 77.994 57.7189 76.538V75.572C57.5509 75.8987 57.2849 76.1647 56.9209 76.37C56.5662 76.5753 56.1462 76.678 55.6609 76.678C54.7649 76.678 54.0229 76.3747 53.4349 75.768C52.8562 75.152 52.5669 74.368 52.5669 73.416C52.5669 72.492 52.8562 71.7173 53.4349 71.092C54.0135 70.4573 54.7555 70.14 55.6609 70.14C56.6875 70.14 57.3782 70.4947 57.7329 71.204V70.266H59.0349V76.496C59.0349 76.944 58.9742 77.3593 58.8529 77.742C58.7409 78.134 58.5589 78.4933 58.3069 78.82C58.0549 79.1467 57.7002 79.4033 57.2429 79.59C56.7949 79.7767 56.2675 79.87 55.6609 79.87C54.8302 79.87 54.1255 79.632 53.5469 79.156C52.9682 78.6893 52.6369 78.092 52.5529 77.364ZM55.8569 75.572C56.4262 75.572 56.8882 75.376 57.2429 74.984C57.5975 74.5827 57.7749 74.06 57.7749 73.416C57.7749 72.772 57.5975 72.254 57.2429 71.862C56.8882 71.4607 56.4262 71.26 55.8569 71.26C55.2782 71.26 54.8069 71.456 54.4429 71.848C54.0882 72.24 53.9109 72.7627 53.9109 73.416C53.9109 74.0787 54.0835 74.606 54.4289 74.998C54.7835 75.3807 55.2595 75.572 55.8569 75.572ZM61.9906 72.94H65.6726C65.6539 72.436 65.4859 72.0253 65.1686 71.708C64.8513 71.3813 64.4033 71.218 63.8246 71.218C63.3019 71.218 62.8726 71.3907 62.5366 71.736C62.2006 72.072 62.0186 72.4733 61.9906 72.94ZM65.8686 74.69L67.0026 75.082C66.8066 75.7073 66.4426 76.2207 65.9106 76.622C65.3786 77.014 64.7346 77.21 63.9786 77.21C63.0359 77.21 62.2333 76.888 61.5706 76.244C60.9173 75.5907 60.5906 74.7133 60.5906 73.612C60.5906 72.5853 60.9079 71.736 61.5426 71.064C62.1773 70.392 62.9333 70.056 63.8106 70.056C64.8279 70.056 65.6213 70.378 66.1906 71.022C66.7599 71.6567 67.0446 72.5107 67.0446 73.584C67.0446 73.752 67.0353 73.892 67.0166 74.004H61.9486C61.9579 74.6013 62.1539 75.0913 62.5366 75.474C62.9286 75.8567 63.4093 76.048 63.9786 76.048C64.9399 76.048 65.5699 75.5953 65.8686 74.69ZM68.0945 75.25L69.2845 74.83C69.3312 75.194 69.4898 75.4973 69.7605 75.74C70.0312 75.9733 70.3952 76.09 70.8525 76.09C71.2072 76.09 71.4872 76.006 71.6925 75.838C71.8978 75.6607 72.0005 75.446 72.0005 75.194C72.0005 74.746 71.7112 74.4567 71.1325 74.326L69.9845 74.074C69.4618 73.962 69.0512 73.738 68.7525 73.402C68.4538 73.066 68.3045 72.66 68.3045 72.184C68.3045 71.6053 68.5378 71.106 69.0045 70.686C69.4805 70.266 70.0452 70.056 70.6985 70.056C71.1278 70.056 71.5105 70.1213 71.8465 70.252C72.1825 70.3733 72.4438 70.5367 72.6305 70.742C72.8172 70.9473 72.9572 71.1387 73.0505 71.316C73.1438 71.4933 73.2138 71.6753 73.2605 71.862L72.0985 72.296C72.0798 72.184 72.0472 72.0767 72.0005 71.974C71.9538 71.862 71.8792 71.7407 71.7765 71.61C71.6832 71.4793 71.5432 71.3767 71.3565 71.302C71.1698 71.218 70.9505 71.176 70.6985 71.176C70.3718 71.176 70.1012 71.2647 69.8865 71.442C69.6812 71.6193 69.5785 71.8293 69.5785 72.072C69.5785 72.5013 69.8352 72.772 70.3485 72.884L71.4405 73.122C72.0378 73.2527 72.4952 73.4953 72.8125 73.85C73.1392 74.1953 73.3025 74.62 73.3025 75.124C73.3025 75.656 73.0832 76.1367 72.6445 76.566C72.2152 76.9953 71.6132 77.21 70.8385 77.21C70.0078 77.21 69.3592 77.0047 68.8925 76.594C68.4258 76.174 68.1598 75.726 68.0945 75.25ZM14.6759 97.66H13.3739V88.266H14.6479V89.316C14.8439 88.9613 15.1379 88.672 15.5299 88.448C15.9219 88.224 16.3792 88.112 16.9019 88.112C17.8726 88.112 18.6286 88.4433 19.1699 89.106C19.7206 89.7687 19.9959 90.6087 19.9959 91.626C19.9959 92.6527 19.7112 93.502 19.1419 94.174C18.5819 94.846 17.8212 95.182 16.8599 95.182C16.3652 95.182 15.9266 95.0793 15.5439 94.874C15.1612 94.6687 14.8719 94.4073 14.6759 94.09V97.66ZM18.6519 91.626C18.6519 90.9447 18.4699 90.3847 18.1059 89.946C17.7512 89.498 17.2706 89.274 16.6639 89.274C16.0666 89.274 15.5812 89.498 15.2079 89.946C14.8439 90.3847 14.6619 90.9447 14.6619 91.626C14.6619 92.326 14.8439 92.9 15.2079 93.348C15.5812 93.7867 16.0666 94.006 16.6639 94.006C17.2612 94.006 17.7419 93.7867 18.1059 93.348C18.4699 92.9 18.6519 92.326 18.6519 91.626ZM22.5267 90.94H26.2087C26.1901 90.436 26.0221 90.0253 25.7047 89.708C25.3874 89.3813 24.9394 89.218 24.3607 89.218C23.8381 89.218 23.4087 89.3907 23.0727 89.736C22.7367 90.072 22.5547 90.4733 22.5267 90.94ZM26.4047 92.69L27.5387 93.082C27.3427 93.7073 26.9787 94.2207 26.4467 94.622C25.9147 95.014 25.2707 95.21 24.5147 95.21C23.5721 95.21 22.7694 94.888 22.1067 94.244C21.4534 93.5907 21.1267 92.7133 21.1267 91.612C21.1267 90.5853 21.4441 89.736 22.0787 89.064C22.7134 88.392 23.4694 88.056 24.3467 88.056C25.3641 88.056 26.1574 88.378 26.7267 89.022C27.2961 89.6567 27.5807 90.5107 27.5807 91.584C27.5807 91.752 27.5714 91.892 27.5527 92.004H22.4847C22.4941 92.6013 22.6901 93.0913 23.0727 93.474C23.4647 93.8567 23.9454 94.048 24.5147 94.048C25.4761 94.048 26.1061 93.5953 26.4047 92.69ZM32.9986 88.196V89.596C32.8026 89.568 32.6113 89.554 32.4246 89.554C31.1926 89.554 30.5766 90.2447 30.5766 91.626V95H29.2606V88.266H30.5486V89.442C30.9593 88.5833 31.6313 88.154 32.5646 88.154C32.714 88.154 32.8586 88.168 32.9986 88.196ZM48.7653 95H47.4073V87.272L44.0193 95H42.7593L39.3993 87.272V95H38.0413V85.074H39.9033L43.4033 93.152L46.9313 85.074H48.7653V95ZM52.5353 93.404C52.946 93.824 53.4453 94.034 54.0333 94.034C54.6213 94.034 55.116 93.824 55.5173 93.404C55.928 92.9747 56.1333 92.382 56.1333 91.626C56.1333 90.8793 55.928 90.296 55.5173 89.876C55.116 89.4467 54.6213 89.232 54.0333 89.232C53.4453 89.232 52.946 89.4467 52.5353 89.876C52.134 90.296 51.9333 90.8793 51.9333 91.626C51.9333 92.382 52.134 92.9747 52.5353 93.404ZM51.5553 89.078C52.2086 88.3967 53.0346 88.056 54.0333 88.056C55.032 88.056 55.8533 88.3967 56.4973 89.078C57.1506 89.75 57.4773 90.5993 57.4773 91.626C57.4773 92.662 57.1553 93.5207 56.5113 94.202C55.8673 94.874 55.0413 95.21 54.0333 95.21C53.0253 95.21 52.1993 94.874 51.5553 94.202C50.9113 93.5207 50.5893 92.662 50.5893 91.626C50.5893 90.5993 50.9113 89.75 51.5553 89.078ZM59.0959 94.79C58.9093 94.6033 58.8159 94.3747 58.8159 94.104C58.8159 93.8333 58.9093 93.6047 59.0959 93.418C59.2826 93.222 59.5113 93.124 59.7819 93.124C60.0526 93.124 60.2813 93.222 60.4679 93.418C60.6639 93.6047 60.7619 93.8333 60.7619 94.104C60.7619 94.3747 60.6639 94.6033 60.4679 94.79C60.2813 94.9767 60.0526 95.07 59.7819 95.07C59.5113 95.07 59.2826 94.9767 59.0959 94.79Z" fill="#0C1250" fill-opacity="0.5"/>
<rect x="17" width="40" height="40" rx="20" fill="white"/>
<path d="M33.8745 8.02441H40.1246C45.0263 8.02441 49 11.9981 49 16.8998V18.6823C49 22.5996 45.8244 25.7752 41.9071 25.7752C41.5154 25.7752 41.1978 26.0928 41.1978 26.4845V29.6011C41.1978 30.4932 40.118 30.9388 39.4888 30.3063L35.2751 26.07C35.0874 25.8813 34.8323 25.7752 34.5661 25.7752H32.3846C28.3077 25.7803 25 22.4767 25 18.3998V16.8989C25 11.9977 28.9732 8.02441 33.8745 8.02441Z" stroke="#795BF1" stroke-width="2"/>
<path fill-rule="evenodd" clip-rule="evenodd" d="M36.9418 20.2632C37.7326 20.2632 38.4197 19.9981 38.8721 19.5241C39.2216 19.1578 39.7259 18.8664 40.2083 19.0199C40.6907 19.1735 40.9673 19.6982 40.7065 20.1321C39.898 21.4766 38.3828 22.0965 36.9418 22.0965C35.4956 22.0965 33.948 21.4827 32.9757 20.1982C32.6702 19.7945 32.8697 19.239 33.3261 19.0199C33.7825 18.8009 34.3225 19.0094 34.6804 19.3675C35.2646 19.9522 36.0962 20.2632 36.9418 20.2632Z" fill="#795BF1"/>
<circle cx="32.5" cy="14.5244" r="1.5" fill="#795BF1"/>
<circle cx="40.5" cy="14.5244" r="1.5" fill="#795BF1"/>
</svg>
